<svg xmlns="http://www.w3.org/2000/svg" viewBox="0 0 885.77 273.91"><defs><style>.cls-1,.cls-4{fill:#fff;}.cls-2{fill:#1ea9ad;}.cls-3{fill:#159fa3;}.cls-4{stroke:#fff;stroke-miterlimit:10;stroke-width:3px;}</style></defs><g id="Camada_2" data-name="Camada 2"><g id="Camada_1-2" data-name="Camada 1"><path class="cls-1" d="M295.84,109c-9.14-4.8-12.92-12.91-15.62-22.25a153.11,153.11,0,0,0-39.13-66.64C228.43,7.48,205.65-.08,187.45,0c-72.23.31-67,43.69-98.84,46-14.38,1-28.74,1.11-42.51,7.38C22.18,64.3,17.88,84.81,22.43,105.83c2.6,12,7.65,23.23,13.22,34.09,1.88,3.66-.07,4.05-2.18,5.77-8.51,6.93-17,13.85-24,22.56C-6,187.39-2.42,203.33,19.33,213.86c16.13,7.82,33.21,11,50.51,13.44,4.48.62,5.26,2.94,6,6.23a62.79,62.79,0,0,0,10.17,22c5.9,8.39,13.85,10.48,22.95,10.73,8.83.24,17.58,1.15,26.34-1.71,10.59-3.45,20.24,1.71,30.08,4.88,26.56,8.56,52,4.18,76.31-8,18.38-9.21,32.82-23.06,41.07-42.81,1.75-4.2,2.53-23.68,18.34-30.18a37,37,0,0,0,19.47-19.68C334.62,135.59,306.49,114.62,295.84,109ZM127.22,49.53c4.89-14.93,17.57-26.62,29.78-32,15.66-6.94,31.4-3.33,45.41,5.29C223.83,36,235.65,57.33,246.9,81.71,206.34,63.58,127.22,49.53,127.22,49.53Zm-18,45.1C113,82.47,114,80.05,117.83,67.9c1-3.18,3.06-4.23,5.8-3.59,26,6.1,52,12.1,77.08,21.77.16.06.2.41.57,1.21-31.47,3-62.39,4.91-92,15.06C105.09,103.79,108.17,98.1,109.24,94.63ZM33.14,197C8.1,185,45.31,151.61,45.31,151.61s20.28,28.06,26.42,55.2C71.73,206.81,44.31,202.42,33.14,197Zm47.27-21.95S66.79,151.27,61.86,142.5a2.19,2.19,0,0,1,.65-2.87l13-8.92a2.11,2.11,0,0,1,3.27,2C78.17,140.05,80.41,175.09,80.41,175.09Zm5.91-81.74c-2.4,7.24-3.59,18.86-9.87,23-1.72,1.13-11.25,9.34-12.75,10.21a6.17,6.17,0,0,1-8.38-2.15c-6.6-10.66-19.4-36-5.22-54.28A30,30,0,0,1,71.38,58.66c11.09-.9,29.35-1.39,26.14,5.61A243.8,243.8,0,0,0,86.32,93.35ZM98.49,242.73c-3.45-5.38.42-8.46,2.33-11.53,2.12-3.41,4.83-.11,6.92,1.72,8.18,7.18,16,14.82,26.62,21.18C118.74,258,107,256,98.49,242.73Zm59.83-7.93c-3.69-1.2-7.17-3.14-10.74-4.74,33.42-4.32,66.36-8.15,98.7-16.92C235.09,218,224,223,212.69,227.57s-22.62,10-34.45,12.37C172.17,241.18,164.93,236.93,158.32,234.8Zm24.44,18.74c25.9-10.17,51.27-20,75.65-35.27C248.15,258.55,220.92,270.57,182.76,253.54Zm81.92-59.78c-.77,5.23-3.38,6.78-6.94,7.73-9.74,2.58-19.51,5.3-29.44,6.84-18.16,2.82-36.34,5.83-54.67,7.11a196.83,196.83,0,0,1-36.92-.45c-21.37-2.54-37.4-21.38-36.94-43.46.38-18.4,1.06-40.49,2.2-47.51,1-6,4-8,8.73-9.51,18.35-6,37-9.61,56.18-12.31,28.93-4.06,56.67-1.67,84.05,8.25,4.5,1.63,7.07,4.13,8.58,9.45a151,151,0,0,1,5.16,34.19C265.75,168.72,266.55,181.14,264.68,193.76Zm21.58-17.15-.78-58.15c17.76,7.14,22.57,24.43,22.21,31.71C307.17,160.56,301.92,168.79,286.26,176.61Z"/><path class="cls-2" d="M355.73,135.56h3.57a5.13,5.13,0,0,1,5.13,5.12v128.1a5.13,5.13,0,0,1-5.13,5.13h-3.57a5.13,5.13,0,0,1-5.13-5.13V140.68A5.13,5.13,0,0,1,355.73,135.56Z"/><path class="cls-2" d="M392.68,171.58h2.92a5.12,5.12,0,0,1,5.12,5.12h0a5.12,5.12,0,0,0,8.49,3.87,47.82,47.82,0,0,1,9-6.41,43,43,0,0,1,20.88-5.22,36.27,36.27,0,0,1,20.36,5.84,34.72,34.72,0,0,1,13.12,15.7q4.23,9.89,4.23,30.76v47.54a5.13,5.13,0,0,1-5.12,5.13h-2.92a5.13,5.13,0,0,1-5.13-5.13V225.09q0-17.67-1.46-23.6-2.3-10.17-8.78-15.29t-16.93-5.12a32.44,32.44,0,0,0-21.4,7.9,37,37,0,0,0-12.47,19.56q-1.87,7.62-1.88,27.84v32.4a5.13,5.13,0,0,1-5.12,5.13h-2.92a5.13,5.13,0,0,1-5.12-5.13V176.7A5.12,5.12,0,0,1,392.68,171.58Z"/><path class="cls-2" d="M555.65,184l-1.39,1.44a5.08,5.08,0,0,1-6.88.35q-8.73-7.12-17.14-7.12a15.61,15.61,0,0,0-11,4.23,13.09,13.09,0,0,0-4.57,9.88,14.66,14.66,0,0,0,3.77,9.5q3.76,4.6,15.83,10.81,14.7,7.62,20,14.68a26.68,26.68,0,0,1,5.19,16.08,28.85,28.85,0,0,1-8.86,21.35q-8.85,8.74-22.13,8.75a38.68,38.68,0,0,1-16.91-3.86,37.48,37.48,0,0,1-10.06-7,5.13,5.13,0,0,1-.27-7.07l1.65-1.87a5.1,5.1,0,0,1,7.25-.44q8.48,7.69,17.78,7.7a19.32,19.32,0,0,0,13.48-5.08,15.73,15.73,0,0,0,5.56-11.95,15.31,15.31,0,0,0-3.68-10.06q-3.68-4.32-16.59-10.91-13.84-7.16-18.85-14.11a26.57,26.57,0,0,1-5-15.89,25.84,25.84,0,0,1,8-19.38q8-7.71,20.11-7.71t24.38,10.17A5.12,5.12,0,0,1,555.65,184Z"/><path class="cls-2" d="M597.25,133.58h2.92a5.13,5.13,0,0,1,5.12,5.13v27.74a5.13,5.13,0,0,0,5.13,5.13h10.63a5.12,5.12,0,0,1,5.12,5.12v1.13a5.13,5.13,0,0,1-5.12,5.13H610.42a5.13,5.13,0,0,0-5.13,5.12v80.7a5.13,5.13,0,0,1-5.12,5.13h-2.92a5.13,5.13,0,0,1-5.12-5.13v-80.7A5.13,5.13,0,0,0,587,183h-7.71a5.13,5.13,0,0,1-5.13-5.13V176.7a5.13,5.13,0,0,1,5.13-5.12H587a5.13,5.13,0,0,0,5.13-5.13V138.71A5.13,5.13,0,0,1,597.25,133.58Z"/><path class="cls-1" d="M734.25,239.52l2.27,1.2a5.12,5.12,0,0,1,2,7.14,56.08,56.08,0,0,1-10,12.6,50.23,50.23,0,0,1-16.1,10,56.15,56.15,0,0,1-20.24,3.44q-25.05,0-39.16-16.42t-14.12-37.1a54.67,54.67,0,0,1,12-34.7q15.15-19.38,40.57-19.38,26.17,0,41.8,19.85,9.6,12.1,11,29.42a5.13,5.13,0,0,1-5.11,5.56H658a5.11,5.11,0,0,0-5.1,5.69,40.12,40.12,0,0,0,11,23.54,36.36,36.36,0,0,0,27.22,11.4,43.8,43.8,0,0,0,15.21-2.71,40.1,40.1,0,0,0,12.57-7.22,52,52,0,0,0,8.73-10.59A5.14,5.14,0,0,1,734.25,239.52Zm-11.17-29.76a5.13,5.13,0,0,0,4.77-7,37.17,37.17,0,0,0-5.47-9.82,36.52,36.52,0,0,0-13.67-10.32,41.19,41.19,0,0,0-16.34-3.69q-15.54-.24-26.63,9.68a38.16,38.16,0,0,0-9.49,14,5.14,5.14,0,0,0,4.73,7.13Z"/><path class="cls-1" d="M874,134.57V266.15a5.12,5.12,0,0,1-5.12,5.12h-2.73a5.13,5.13,0,0,1-5.13-5.12v0a5.13,5.13,0,0,0-8.43-3.91,51.6,51.6,0,0,1-10.14,6.62,50.34,50.34,0,0,1-22.53,5.08q-21.72,0-37.1-15.76t-15.38-38.32A51.83,51.83,0,0,1,783,182q15.51-15.71,37.34-15.71a48.3,48.3,0,0,1,22.8,5.36,47.07,47.07,0,0,1,9.44,6.57,5.11,5.11,0,0,0,8.48-3.87v-39.8a5.13,5.13,0,0,1,5.13-5.13h2.73A5.13,5.13,0,0,1,874,134.57ZM821.37,179a39.71,39.71,0,0,0-35.09,20.57,41.49,41.49,0,0,0,.05,41.34,40.42,40.42,0,0,0,14.89,15.36,38.91,38.91,0,0,0,20,5.49,41,41,0,0,0,20.48-5.45,38.1,38.1,0,0,0,14.89-14.74,42.07,42.07,0,0,0,5.22-21q0-17.76-11.7-29.69A38.71,38.71,0,0,0,821.37,179Z"/><rect class="cls-3" x="571.98" y="24.52" width="316.25" height="70.59" rx="35.29" transform="translate(2.75 146.93) rotate(-11.51)"/><path class="cls-4" d="M600.66,69.81l14.55-3a.61.61,0,0,1,.73.48l.38,1.87a.61.61,0,0,1-.48.73l-11.41,2.32A.62.62,0,0,0,604,73l1.76,8.65a.62.62,0,0,0,.73.48l11.41-2.32a.62.62,0,0,1,.73.48l.38,1.87a.62.62,0,0,1-.48.73l-11.41,2.32a.62.62,0,0,0-.48.73l2.9,14.23a.62.62,0,0,1-.49.73l-1.93.4a.62.62,0,0,1-.73-.49l-6.16-30.25A.62.62,0,0,1,600.66,69.81Z"/><path class="cls-4" d="M634.39,63.31l20.27,27.38a.62.62,0,0,1-.38,1l-2.06.42a.62.62,0,0,1-.62-.23L645,83.13a.61.61,0,0,0-.61-.24L631.61,85.5a.61.61,0,0,0-.48.46l-2.6,10.59a.61.61,0,0,1-.48.45l-2.17.45a.62.62,0,0,1-.72-.76l8.13-33.16a.61.61,0,0,1,.47-.46h0A.64.64,0,0,1,634.39,63.31ZM634.8,71,632.28,81.3a.61.61,0,0,0,.72.75l8.85-1.8a.62.62,0,0,0,.37-1l-6.32-8.46A.62.62,0,0,0,634.8,71Z"/><path class="cls-4" d="M683.79,59.35l-1.3,1.49a.61.61,0,0,1-.85.06,13.74,13.74,0,0,0-5.3-2.66,14.67,14.67,0,0,0-6.6-.09,14.22,14.22,0,0,0-6.6,3.23,13.24,13.24,0,0,0-4,5.86,13.73,13.73,0,0,0-.36,7.22,13.09,13.09,0,0,0,5.9,8.8,13.94,13.94,0,0,0,10.74,1.82,14.23,14.23,0,0,0,9.72-6.93.61.61,0,0,1,.79-.25l1.78.85a.62.62,0,0,1,.28.85,16.17,16.17,0,0,1-4.63,5.26,18.87,18.87,0,0,1-7.53,3.23q-8.25,1.68-14.14-2.84a17,17,0,0,1-6.29-10.39,16,16,0,0,1,2.48-12.62,17.05,17.05,0,0,1,11.18-7.18,18.15,18.15,0,0,1,8.31.12,15.75,15.75,0,0,1,6.35,3.29A.63.63,0,0,1,683.79,59.35Z"/><path class="cls-4" d="M690,51.61l1.93-.39a.62.62,0,0,1,.73.48l3.74,18.39a40.14,40.14,0,0,0,1,4.19,7.2,7.2,0,0,0,1.72,2.89,6.71,6.71,0,0,0,3.06,1.56,8.38,8.38,0,0,0,3.75.11,7.15,7.15,0,0,0,2.86-1.27,6.93,6.93,0,0,0,2-2.33,7.63,7.63,0,0,0,.83-3.13,24.46,24.46,0,0,0-.68-5l-3.75-18.39a.62.62,0,0,1,.49-.73l1.93-.4a.63.63,0,0,1,.73.49l3.74,18.38a23.93,23.93,0,0,1,.57,7,9.8,9.8,0,0,1-8,8.34,11.63,11.63,0,0,1-6.9-.49,8.94,8.94,0,0,1-4.61-4.07,25.81,25.81,0,0,1-1.93-6.51l-3.75-18.39A.63.63,0,0,1,690,51.61Z"/><path class="cls-4" d="M718.6,45.79l1.93-.39a.61.61,0,0,1,.73.48l5.55,27.21a.62.62,0,0,0,.73.49l10.89-2.22a.62.62,0,0,1,.73.48l.37,1.82a.61.61,0,0,1-.48.73l-14,2.86a.62.62,0,0,1-.73-.48l-6.16-30.25A.62.62,0,0,1,718.6,45.79Z"/><path class="cls-4" d="M744.52,72.65,738.35,42.4a.62.62,0,0,1,.49-.73l5.91-1.21q7.07-1.43,10.48-1a14,14,0,0,1,8.29,4.1,17.35,17.35,0,0,1,4.5,8.91,17,17,0,0,1-.35,8.74,13.34,13.34,0,0,1-4.23,6.38q-2.91,2.39-8.79,3.58l-9.41,1.91A.61.61,0,0,1,744.52,72.65Zm2.41-3.59a.62.62,0,0,0,.73.49l3-.62c4.34-.89,7.31-1.77,8.88-2.66A10.58,10.58,0,0,0,764.3,61a13,13,0,0,0,.54-7.76,13.78,13.78,0,0,0-3.79-7.33,11.28,11.28,0,0,0-7-3.17q-3.13-.3-9.91,1.09l-1.62.32a.62.62,0,0,0-.48.73Z"/><path class="cls-4" d="M783.92,32.85l20.27,27.38a.62.62,0,0,1-.38,1l-2.06.42a.62.62,0,0,1-.62-.23l-6.58-8.72a.65.65,0,0,0-.62-.24L781.14,55a.64.64,0,0,0-.48.46l-2.6,10.59a.64.64,0,0,1-.48.46l-2.17.44a.62.62,0,0,1-.72-.76l8.13-33.16a.63.63,0,0,1,.48-.46h0A.65.65,0,0,1,783.92,32.85Zm.41,7.72-2.52,10.27a.61.61,0,0,0,.72.75l8.85-1.8a.62.62,0,0,0,.37-1l-6.32-8.46A.62.62,0,0,0,784.33,40.57Z"/><path class="cls-4" d="M809.52,59.41l-6.17-30.25a.62.62,0,0,1,.49-.73l5.91-1.21q7.07-1.42,10.48-.95a14,14,0,0,1,8.29,4.1,17.35,17.35,0,0,1,4.5,8.91,17,17,0,0,1-.35,8.74,13.32,13.32,0,0,1-4.22,6.38q-2.93,2.39-8.8,3.58l-9.4,1.91A.61.61,0,0,1,809.52,59.41Zm2.41-3.59a.61.61,0,0,0,.73.48l3-.61C820,54.8,823,53.92,824.57,53a10.58,10.58,0,0,0,4.73-5.29,13,13,0,0,0,.54-7.76,13.78,13.78,0,0,0-3.79-7.33,11.28,11.28,0,0,0-7-3.17q-3.13-.3-9.91,1.08l-1.62.33a.62.62,0,0,0-.48.73Z"/><path class="cls-4" d="M836.46,21.78l16.81-3.42a.61.61,0,0,1,.73.48l.38,1.87a.62.62,0,0,1-.48.73l-13.67,2.78a.63.63,0,0,0-.49.73l1.77,8.65a.61.61,0,0,0,.73.48l13.54-2.75a.61.61,0,0,1,.73.48l.38,1.87a.62.62,0,0,1-.48.73l-13.55,2.75a.62.62,0,0,0-.48.73L844.65,49a.62.62,0,0,0,.73.49l13.55-2.76a.62.62,0,0,1,.73.48l.38,1.87a.62.62,0,0,1-.48.73l-16.7,3.4a.61.61,0,0,1-.72-.48L836,22.51A.62.62,0,0,1,836.46,21.78Z"/></g></g></svg>